<?xml version="1.0" encoding="UTF-8" standalone="no"?>
<svg
   xmlns:dc="http://purl.org/dc/elements/1.1/"
   xmlns:cc="http://creativecommons.org/ns#"
   xmlns:rdf="http://www.w3.org/1999/02/22-rdf-syntax-ns#"
   xmlns:svg="http://www.w3.org/2000/svg"
   xmlns="http://www.w3.org/2000/svg"
   xmlns:xlink="http://www.w3.org/1999/xlink"
   xmlns:sodipodi="http://sodipodi.sourceforge.net/DTD/sodipodi-0.dtd"
   xmlns:inkscape="http://www.inkscape.org/namespaces/inkscape"
   inkscape:export-ydpi="153.6002"
   inkscape:export-xdpi="153.6002"
   inkscape:export-filename="L:\Web\l-thoms.github.io\Head48.png"
   sodipodi:docname="Head.svg"
   inkscape:version="1.0 (4035a4fb49, 2020-05-01)"
   id="svg8"
   version="1.1"
   viewBox="0 0 8.4666664 8.466667"
   height="32"
   width="32">
  <defs
     id="defs2">
    <linearGradient
       inkscape:collect="always"
       id="linearGradient906">
      <stop
         style="stop-color:#000000;stop-opacity:0.20084314"
         offset="0"
         id="stop902" />
      <stop
         style="stop-color:#808080;stop-opacity:0"
         offset="1"
         id="stop904" />
    </linearGradient>
    <linearGradient
       inkscape:collect="always"
       id="linearGradient1735">
      <stop
         style="stop-color:#70e500;stop-opacity:1"
         offset="0"
         id="stop1731" />
      <stop
         id="stop1737"
         offset="0.98479784"
         style="stop-color:#fdfffb;stop-opacity:1;" />
      <stop
         style="stop-color:#ffffff;stop-opacity:1"
         offset="1"
         id="stop1733" />
    </linearGradient>
    <linearGradient
       id="linearGradient1729"
       inkscape:collect="always">
      <stop
         id="stop1725"
         offset="0"
         style="stop-color:#71e600;stop-opacity:1" />
      <stop
         id="stop1727"
         offset="1"
         style="stop-color:#ffffff;stop-opacity:1" />
    </linearGradient>
    <radialGradient
       gradientUnits="userSpaceOnUse"
       gradientTransform="matrix(0.82902773,-1.4920732e-6,0,0.7055555,-2.7380107,0.60380297)"
       r="15.000001"
       fy="1.7692322"
       fx="7.4516134"
       cy="1.7692322"
       cx="7.4516134"
       id="radialGradient1111"
       xlink:href="#linearGradient1729"
       inkscape:collect="always" />
    <radialGradient
       gradientUnits="userSpaceOnUse"
       gradientTransform="matrix(0.77611107,0,0,0.68791663,-7.9842184,-1.852083)"
       r="15.000001"
       fy="10"
       fx="14.378378"
       cy="10"
       cx="14.378378"
       id="radialGradient1119"
       xlink:href="#linearGradient1735"
       inkscape:collect="always" />
    <linearGradient
       inkscape:collect="always"
       xlink:href="#linearGradient906"
       id="linearGradient908"
       x1="3.7041667"
       y1="5.0270834"
       x2="3.7041667"
       y2="6.3499999"
       gradientUnits="userSpaceOnUse"
       gradientTransform="matrix(1,0,0,0.79999978,0,1.0054178)" />
  </defs>
  <sodipodi:namedview
     guideopacity="0.49803922"
     guidecolor="#0202ff"
     inkscape:window-maximized="1"
     inkscape:window-y="-4"
     inkscape:window-x="-4"
     inkscape:window-height="1015"
     inkscape:window-width="1920"
     inkscape:snap-grids="true"
     inkscape:snap-to-guides="false"
     inkscape:lockguides="false"
     inkscape:guide-bbox="true"
     showguides="false"
     units="px"
     showgrid="true"
     inkscape:document-rotation="0"
     inkscape:current-layer="layer1"
     inkscape:document-units="px"
     inkscape:cy="31.230697"
     inkscape:cx="29.209629"
     inkscape:zoom="22.627417"
     inkscape:pageshadow="2"
     inkscape:pageopacity="0.0"
     borderopacity="1.0"
     bordercolor="#666666"
     pagecolor="#ffffff"
     id="base">
    <inkscape:grid
       opacity="0"
       color="#ffffff"
       empopacity="0"
       empcolor="#ffffff"
       id="grid10"
       type="xygrid" />
  </sodipodi:namedview>
  <metadata
     id="metadata5">
    <rdf:RDF>
      <cc:Work
         rdf:about="">
        <dc:format>image/svg+xml</dc:format>
        <dc:type
           rdf:resource="http://purl.org/dc/dcmitype/StillImage" />
        <dc:title />
      </cc:Work>
    </rdf:RDF>
  </metadata>
  <g
     id="layer1"
     inkscape:groupmode="layer"
     inkscape:label="图层 1">
    <path
       d="m 6.6145833,5.0270833 h -4.7625 V 6.4822916 A 0.13229164,0.13229164 0 0 1 1.7228923,6.6145833 H 0.396875 0.393774 a 0.13229163,0.13229163 0 0 0 -0.0160197,0.00156 0.13229163,0.13229163 0 0 0 -0.0149863,0.0031 0.13229163,0.13229163 0 0 0 -0.0149863,0.00465 0.13229163,0.13229163 0 0 0 -0.0144693,0.00672 0.13229163,0.13229163 0 0 0 -0.0134358,0.00878 0.13229163,0.13229163 0 0 0 -0.0118856,0.00982 0.13229163,0.13229163 0 0 0 -0.0113689,0.010853 0.13229163,0.13229163 0 0 0 -0.009302,0.01292 0.13229163,0.13229163 0 0 0 -0.008268,0.013436 0.13229163,0.13229163 0 0 0 -0.006201,0.01447 0.13229163,0.13229163 0 0 0 -0.004651,0.014986 0.13229163,0.13229163 0 0 0 -0.002585,0.015502 0.13229163,0.13229163 0 0 0 -0.001032,0.015491 v 0.0031 a 0.13229163,0.13229163 0 0 0 0,5.292e-4 v 1.3192866 0.0031 a 0.13229164,0.13229164 0 0 0 0.00155,0.01602 0.13229164,0.13229164 0 0 0 0.003101,0.014986 0.13229164,0.13229164 0 0 0 0.004651,0.014986 0.13229164,0.13229164 0 0 0 0.006718,0.01447 0.13229164,0.13229164 0 0 0 0.008785,0.013435 0.13229164,0.13229164 0 0 0 0.009818,0.011885 0.13229164,0.13229164 0 0 0 0.0108522,0.011369 0.13229164,0.13229164 0 0 0 0.0129191,0.0093 0.13229164,0.13229164 0 0 0 0.0134358,0.00827 0.13229164,0.13229164 0 0 0 0.0144693,0.0062 0.13229164,0.13229164 0 0 0 0.0149863,0.00465 0.13229164,0.13229164 0 0 0 0.015503,0.00259 0.13229164,0.13229164 0 0 0 0.0155027,0.00102 h 0.003101 a 0.13229164,0.13229164 0 0 0 5.1594e-4,0 h 2.90680016 0.0031 a 0.13229164,0.13229164 0 0 0 0.016021,-0.00156 0.13229164,0.13229164 0 0 0 0.014986,-0.0031 0.13229164,0.13229164 0 0 0 0.014986,-0.00465 0.13229164,0.13229164 0 0 0 0.01447,-0.00672 0.13229164,0.13229164 0 0 0 0.013435,-0.00878 0.13229164,0.13229164 0 0 0 0.011885,-0.00982 0.13229164,0.13229164 0 0 0 0.011369,-0.010853 0.13229164,0.13229164 0 0 0 0.0093,-0.01292 0.13229164,0.13229164 0 0 0 0.00827,-0.013436 0.13229164,0.13229164 0 0 0 0.0062,-0.01447 0.13229164,0.13229164 0 0 0 0.00465,-0.014986 0.13229164,0.13229164 0 0 0 0.00259,-0.015502 0.13229164,0.13229164 0 0 0 0.00102,-0.015491 v -0.0031 a 0.13229164,0.13229164 0 0 0 0,-5.291e-4 V 6.7468749 a 0.13229165,0.13229165 0 0 1 0.129191,-0.1322916 h 1.3260172 a 0.13229165,0.13229165 0 0 1 0.1322917,0.129191 v 1.3260173 0.0031 a 0.13229163,0.13229163 0 0 0 0.00156,0.01602 0.13229163,0.13229163 0 0 0 0.0031,0.014986 0.13229163,0.13229163 0 0 0 0.00465,0.014986 0.13229163,0.13229163 0 0 0 0.00672,0.01447 0.13229163,0.13229163 0 0 0 0.00878,0.013435 0.13229163,0.13229163 0 0 0 0.00982,0.011885 0.13229163,0.13229163 0 0 0 0.010853,0.011369 0.13229163,0.13229163 0 0 0 0.01292,0.0093 0.13229163,0.13229163 0 0 0 0.013435,0.00827 0.13229163,0.13229163 0 0 0 0.01447,0.0062 0.13229163,0.13229163 0 0 0 0.014986,0.00465 0.13229163,0.13229163 0 0 0 0.015502,0.00259 0.13229163,0.13229163 0 0 0 0.015491,0.00102 h 0.0031 a 0.13229163,0.13229163 0 0 0 5.291e-4,0 h 2.9067866 0.0031 a 0.13229162,0.13229162 0 0 0 0.01602,-0.00156 0.13229162,0.13229162 0 0 0 0.014986,-0.0031 0.13229162,0.13229162 0 0 0 0.014986,-0.00465 0.13229162,0.13229162 0 0 0 0.01447,-0.00672 0.13229162,0.13229162 0 0 0 0.013435,-0.00878 0.13229162,0.13229162 0 0 0 0.011885,-0.00982 0.13229162,0.13229162 0 0 0 0.011369,-0.010853 0.13229162,0.13229162 0 0 0 0.0093,-0.01292 0.13229162,0.13229162 0 0 0 0.00827,-0.013436 0.13229162,0.13229162 0 0 0 0.0062,-0.01447 0.13229162,0.13229162 0 0 0 0.00465,-0.014986 0.13229162,0.13229162 0 0 0 0.00259,-0.015502 0.13229162,0.13229162 0 0 0 0.00102,-0.015491 v -0.0031 a 0.13229162,0.13229162 0 0 0 0,-5.291e-4 v -1.3192866 -0.0031 a 0.13229161,0.13229161 0 0 0 -0.00156,-0.016021 0.13229161,0.13229161 0 0 0 -0.0031,-0.014986 0.13229161,0.13229161 0 0 0 -0.00465,-0.014986 0.13229161,0.13229161 0 0 0 -0.00672,-0.01447 0.13229161,0.13229161 0 0 0 -0.00878,-0.013436 0.13229161,0.13229161 0 0 0 -0.00982,-0.011885 0.13229161,0.13229161 0 0 0 -0.010853,-0.011369 0.13229161,0.13229161 0 0 0 -0.01292,-0.0093 0.13229161,0.13229161 0 0 0 -0.013436,-0.00827 0.13229161,0.13229161 0 0 0 -0.01447,-0.0062 0.13229161,0.13229161 0 0 0 -0.014986,-0.00465 0.13229161,0.13229161 0 0 0 -0.015502,-0.00259 0.13229161,0.13229161 0 0 0 -0.015491,-0.00102 h -0.0031 a 0.13229161,0.13229161 0 0 0 -5.292e-4,0 H 6.7468749 A 0.13229165,0.13229165 0 0 1 6.6145833,6.4853922 Z"
       style="fill:url(#radialGradient1119);fill-opacity:1;stroke:none;stroke-width:0.529167px;stroke-linecap:butt;stroke-linejoin:miter;stroke-opacity:1"
       id="path993" />
    <path
       d="m 1.9812744,0.26458333 a 0.13229159,0.13229159 0 0 0 -0.01602,0.00155 0.13229159,0.13229159 0 0 0 -0.014986,0.003101 0.13229159,0.13229159 0 0 0 -0.014986,0.004651 0.13229159,0.13229159 0 0 0 -0.014469,0.006718 0.13229159,0.13229159 0 0 0 -0.013436,0.008785 0.13229159,0.13229159 0 0 0 -0.011886,0.009818 0.13229159,0.13229159 0 0 0 -0.011369,0.0108522 0.13229159,0.13229159 0 0 0 -0.0093,0.0129191 0.13229159,0.13229159 0 0 0 -0.00827,0.0134358 0.13229159,0.13229159 0 0 0 -0.0062,0.0144693 0.13229159,0.13229159 0 0 0 -0.00465,0.0149863 0.13229159,0.13229159 0 0 0 -0.00258,0.015503 0.13229159,0.13229159 0 0 0 -0.00103,0.0155027 v 0.003101 a 0.13229159,0.13229159 0 0 0 0,5.1593e-4 V 1.8520833 h 1.5875 v 1.5875 h -1.5875 v -1.5875 H 0.52916667 0.396875 0.393774 C 0.3219257,1.8537633 0.26456319,1.9125063 0.26458293,1.984375 v 0.0031 0.129191 2.778125 0.0031 a 0.13229159,0.13229159 0 0 0 0.00155,0.01602 0.13229159,0.13229159 0 0 0 0.003101,0.014986 0.13229159,0.13229159 0 0 0 0.004651,0.014986 0.13229159,0.13229159 0 0 0 0.006718,0.01447 0.13229159,0.13229159 0 0 0 0.008785,0.013435 0.13229159,0.13229159 0 0 0 0.009818,0.011885 0.13229159,0.13229159 0 0 0 0.0108522,0.011369 0.13229159,0.13229159 0 0 0 0.0129191,0.0093 0.13229159,0.13229159 0 0 0 0.0134358,0.00827 0.13229159,0.13229159 0 0 0 0.0144693,0.0062 0.13229159,0.13229159 0 0 0 0.0149863,0.00465 0.13229159,0.13229159 0 0 0 0.015503,0.00259 0.13229159,0.13229159 0 0 0 0.0155027,0.00102 h 0.003101 a 0.13229159,0.13229159 0 0 0 5.1594e-4,0 h 1.45159173 4.7625 1.4552083 0.0031 a 0.13229161,0.13229161 0 0 0 0.01602,-0.00156 0.13229161,0.13229161 0 0 0 0.014986,-0.0031 0.13229161,0.13229161 0 0 0 0.014986,-0.00465 0.13229161,0.13229161 0 0 0 0.01447,-0.00672 0.13229161,0.13229161 0 0 0 0.013435,-0.00878 0.13229161,0.13229161 0 0 0 0.011885,-0.00982 0.13229161,0.13229161 0 0 0 0.011369,-0.010853 0.13229161,0.13229161 0 0 0 0.0093,-0.01292 0.13229161,0.13229161 0 0 0 0.00827,-0.013435 0.13229161,0.13229161 0 0 0 0.0062,-0.01447 0.13229161,0.13229161 0 0 0 0.00465,-0.014986 0.13229161,0.13229161 0 0 0 0.00259,-0.015502 0.13229161,0.13229161 0 0 0 0.00102,-0.015491 v -0.0031 a 0.13229161,0.13229161 0 0 0 0,-5.292e-4 v -2.9067865 -0.0031 a 0.1322916,0.1322916 0 0 0 -0.00156,-0.01602 0.1322916,0.1322916 0 0 0 -0.0031,-0.014986 0.1322916,0.1322916 0 0 0 -0.00465,-0.014986 0.1322916,0.1322916 0 0 0 -0.00672,-0.014469 0.1322916,0.1322916 0 0 0 -0.00878,-0.013436 0.1322916,0.1322916 0 0 0 -0.00982,-0.011886 0.1322916,0.1322916 0 0 0 -0.010853,-0.011369 0.1322916,0.1322916 0 0 0 -0.01292,-0.0093 0.1322916,0.1322916 0 0 0 -0.013436,-0.00827 0.1322916,0.1322916 0 0 0 -0.01447,-0.0062 0.1322916,0.1322916 0 0 0 -0.014986,-0.00465 0.1322916,0.1322916 0 0 0 -0.015502,-0.00258 0.1322916,0.1322916 0 0 0 -0.015491,-0.00103 h -0.0031 a 0.1322916,0.1322916 0 0 0 -5.292e-4,0 H 6.6145833 v 1.5875 h -1.5875 v -1.5875 h 1.5875 V 0.396875 0.3937744 a 0.1322916,0.1322916 0 0 0 -0.00156,-0.0160197 0.1322916,0.1322916 0 0 0 -0.0031,-0.0149863 0.1322916,0.1322916 0 0 0 -0.00465,-0.0149863 0.1322916,0.1322916 0 0 0 -0.00672,-0.0144693 0.1322916,0.1322916 0 0 0 -0.00878,-0.0134358 0.1322916,0.1322916 0 0 0 -0.00982,-0.0118856 0.1322916,0.1322916 0 0 0 -0.010853,-0.0113689 0.1322916,0.1322916 0 0 0 -0.01292,-0.009302 0.1322916,0.1322916 0 0 0 -0.013435,-0.008268 0.1322916,0.1322916 0 0 0 -0.01447,-0.006201 0.1322916,0.1322916 0 0 0 -0.014986,-0.004651 0.1322916,0.1322916 0 0 0 -0.015502,-0.002585 0.1322916,0.1322916 0 0 0 -0.015491,-0.001032 h -0.0031 a 0.1322916,0.1322916 0 0 0 -5.292e-4,0 H 1.984375 Z"
       style="fill:url(#radialGradient1111);fill-opacity:1;fill-rule:nonzero;stroke:none;stroke-width:0.529167px;stroke-linecap:butt;stroke-linejoin:miter;stroke-opacity:1"
       id="path1078" />
    <rect
       style="fill:url(#linearGradient908);fill-opacity:1;stroke:none;stroke-width:0.216031;stroke-miterlimit:4;stroke-dasharray:0.864126, 0.864126;stroke-dashoffset:0;paint-order:fill markers stroke"
       id="rect77"
       width="4.7624998"
       height="1.0583332"
       x="1.8520833"
       y="5.0270834" />
  </g>
</svg>
