<?xml version="1.0" encoding="UTF-8" standalone="no"?>
<svg
   xmlns:dc="http://purl.org/dc/elements/1.1/"
   xmlns:cc="http://creativecommons.org/ns#"
   xmlns:rdf="http://www.w3.org/1999/02/22-rdf-syntax-ns#"
   xmlns:svg="http://www.w3.org/2000/svg"
   xmlns="http://www.w3.org/2000/svg"
   xmlns:xlink="http://www.w3.org/1999/xlink"
   xmlns:sodipodi="http://sodipodi.sourceforge.net/DTD/sodipodi-0.dtd"
   xmlns:inkscape="http://www.inkscape.org/namespaces/inkscape"
   width="32"
   height="32"
   viewBox="0 0 8.4666664 8.466667"
   version="1.1"
   id="svg8"
   inkscape:version="1.0 (4035a4fb49, 2020-05-01)"
   sodipodi:docname="Head16.svg"
   inkscape:export-filename="L:\Web\l-thoms.github.io\Head24.png"
   inkscape:export-xdpi="96"
   inkscape:export-ydpi="96">
  <defs
     id="defs2">
    <linearGradient
       id="linearGradient906"
       inkscape:collect="always">
      <stop
         id="stop902"
         offset="0"
         style="stop-color:#000000;stop-opacity:0.20084314" />
      <stop
         id="stop904"
         offset="1"
         style="stop-color:#808080;stop-opacity:0" />
    </linearGradient>
    <linearGradient
       id="linearGradient1735"
       inkscape:collect="always">
      <stop
         id="stop1731"
         offset="0"
         style="stop-color:#70e500;stop-opacity:1" />
      <stop
         style="stop-color:#fdfffb;stop-opacity:1;"
         offset="0.98479784"
         id="stop1737" />
      <stop
         id="stop1733"
         offset="1"
         style="stop-color:#ffffff;stop-opacity:1" />
    </linearGradient>
    <linearGradient
       inkscape:collect="always"
       id="linearGradient1729">
      <stop
         style="stop-color:#71e600;stop-opacity:1"
         offset="0"
         id="stop1725" />
      <stop
         style="stop-color:#ffffff;stop-opacity:1"
         offset="1"
         id="stop1727" />
    </linearGradient>
    <radialGradient
       inkscape:collect="always"
       xlink:href="#linearGradient1729"
       id="radialGradient1111"
       cx="7.4516134"
       cy="1.7692322"
       fx="7.4516134"
       fy="1.7692322"
       r="15.000001"
       gradientTransform="matrix(0.55268433,-9.9472016e-7,0,0.47037256,-1.4725585,0.75531429)"
       gradientUnits="userSpaceOnUse" />
    <radialGradient
       inkscape:collect="always"
       xlink:href="#linearGradient1735"
       id="radialGradient1119"
       cx="14.378378"
       cy="10"
       fx="14.378378"
       fy="10"
       r="15.000001"
       gradientTransform="matrix(0.51740659,0,0,0.45861324,-4.9700253,-0.88195069)"
       gradientUnits="userSpaceOnUse" />
    <linearGradient
       gradientTransform="matrix(0.66666565,0,0,0.53333569,0.35277928,1.0230587)"
       gradientUnits="userSpaceOnUse"
       y2="6.3499999"
       x2="3.7041667"
       y1="5.0270834"
       x1="3.7041667"
       id="linearGradient908"
       xlink:href="#linearGradient906"
       inkscape:collect="always" />
  </defs>
  <sodipodi:namedview
     id="base"
     pagecolor="#ffffff"
     bordercolor="#666666"
     borderopacity="1.0"
     inkscape:pageopacity="0.0"
     inkscape:pageshadow="2"
     inkscape:zoom="8"
     inkscape:cx="13.254667"
     inkscape:cy="31.806477"
     inkscape:document-units="px"
     inkscape:current-layer="layer1"
     inkscape:document-rotation="0"
     showgrid="true"
     units="px"
     showguides="false"
     inkscape:guide-bbox="true"
     inkscape:lockguides="false"
     inkscape:snap-to-guides="false"
     inkscape:snap-grids="true"
     inkscape:window-width="1920"
     inkscape:window-height="1015"
     inkscape:window-x="-4"
     inkscape:window-y="-4"
     inkscape:window-maximized="1"
     guidecolor="#0202ff"
     guideopacity="0.49803922">
    <inkscape:grid
       type="xygrid"
       id="grid10"
       empcolor="#ffffff"
       empopacity="0"
       color="#ffffff"
       opacity="0" />
  </sodipodi:namedview>
  <metadata
     id="metadata5">
    <rdf:RDF>
      <cc:Work
         rdf:about="">
        <dc:format>image/svg+xml</dc:format>
        <dc:type
           rdf:resource="http://purl.org/dc/dcmitype/StillImage" />
        <dc:title />
      </cc:Work>
    </rdf:RDF>
  </metadata>
  <g
     inkscape:label="图层 1"
     inkscape:groupmode="layer"
     id="layer1">
    <path
       id="path993"
       style="fill:url(#radialGradient1119);fill-opacity:1;stroke:none;stroke-width:0.352779px;stroke-linecap:butt;stroke-linejoin:miter;stroke-opacity:1"
       d="M 4.7624946,3.7041813 H 1.5874994 V 4.674325 A 0.0881943,0.08819483 0 0 1 1.5013724,4.76252 h -0.88401013 -0.002068 a 0.08819428,0.08819483 0 0 0 -0.0106794,0.00102 0.08819428,0.08819483 0 0 0 -0.009991,0.00204 0.08819428,0.08819483 0 0 0 -0.009991,0.00311 0.08819428,0.08819483 0 0 0 -0.009646,0.00448 0.08819428,0.08819483 0 0 0 -0.008957,0.00584 0.08819428,0.08819483 0 0 0 -0.007924,0.00655 0.08819428,0.08819483 0 0 0 -0.007579,0.00723 0.08819428,0.08819483 0 0 0 -0.006201,0.0086 0.08819428,0.08819483 0 0 0 -0.005512,0.00896 0.08819428,0.08819483 0 0 0 -0.004134,0.00964 0.08819428,0.08819483 0 0 0 -0.003101,0.00998 0.08819428,0.08819483 0 0 0 -0.001724,0.010342 0.08819428,0.08819483 0 0 0 -6.88e-4,0.010342 v 0.00204 a 0.08819428,0.08819483 0 0 0 0,3.529e-4 v 0.8795279 0.00204 a 0.0881943,0.08819483 0 0 0 0.001033,0.010684 0.0881943,0.08819483 0 0 0 0.002068,0.00998 0.0881943,0.08819483 0 0 0 0.003101,0.00998 0.0881943,0.08819483 0 0 0 0.004479,0.00964 0.0881943,0.08819483 0 0 0 0.005856,0.00896 0.0881943,0.08819483 0 0 0 0.006545,0.00793 0.0881943,0.08819483 0 0 0 0.007235,0.00758 0.0881943,0.08819483 0 0 0 0.008613,0.00619 0.0881943,0.08819483 0 0 0 0.008957,0.00552 0.0881943,0.08819483 0 0 0 0.009646,0.00413 0.0881943,0.08819483 0 0 0 0.009991,0.00311 0.0881943,0.08819483 0 0 0 0.0103354,0.00173 0.0881943,0.08819483 0 0 0 0.0103354,6.666e-4 H 0.61943 a 0.0881943,0.08819483 0 0 0 3.4396e-4,0 h 1.93786394 0.00207 a 0.0881943,0.08819483 0 0 0 0.010676,-0.00107 0.0881943,0.08819483 0 0 0 0.00999,-0.00204 0.0881943,0.08819483 0 0 0 0.00999,-0.00311 0.0881943,0.08819483 0 0 0 0.00964,-0.00448 0.0881943,0.08819483 0 0 0 0.00895,-0.00585 0.0881943,0.08819483 0 0 0 0.00793,-0.00655 0.0881943,0.08819483 0 0 0 0.00758,-0.00722 0.0881943,0.08819483 0 0 0 0.0062,-0.0086 0.0881943,0.08819483 0 0 0 0.00551,-0.00896 0.0881943,0.08819483 0 0 0 0.00413,-0.00965 0.0881943,0.08819483 0 0 0 0.00309,-0.00998 0.0881943,0.08819483 0 0 0 0.00173,-0.010338 0.0881943,0.08819483 0 0 0 6.8e-4,-0.010329 v -0.00204 a 0.0881943,0.08819483 0 0 0 0,-3.529e-4 V 4.8507146 a 0.0881943,0.08819485 0 0 1 0.08613,-0.088194 H 3.615944 a 0.0881943,0.08819485 0 0 1 0.088194,0.086129 v 0.8840154 0.00204 a 0.08819428,0.08819483 0 0 0 0.00104,0.010684 0.08819428,0.08819483 0 0 0 0.00207,0.00998 0.08819428,0.08819483 0 0 0 0.00309,0.00998 0.08819428,0.08819483 0 0 0 0.00448,0.00964 0.08819428,0.08819483 0 0 0 0.00586,0.00896 0.08819428,0.08819483 0 0 0 0.00655,0.00793 0.08819428,0.08819483 0 0 0 0.00724,0.00758 0.08819428,0.08819483 0 0 0 0.00862,0.0062 0.08819428,0.08819483 0 0 0 0.00895,0.00552 0.08819428,0.08819483 0 0 0 0.00964,0.00413 0.08819428,0.08819483 0 0 0 0.00999,0.00311 0.08819428,0.08819483 0 0 0 0.010332,0.00173 0.08819428,0.08819483 0 0 0 0.010332,6.667e-4 h 0.00207 a 0.08819428,0.08819483 0 0 0 3.529e-4,0 h 1.9378544 0.00209 a 0.08819428,0.08819482 0 0 0 0.010675,-0.00107 0.08819428,0.08819482 0 0 0 0.00999,-0.00204 0.08819428,0.08819482 0 0 0 0.00999,-0.00311 0.08819428,0.08819482 0 0 0 0.00964,-0.00448 0.08819428,0.08819482 0 0 0 0.00895,-0.00585 0.08819428,0.08819482 0 0 0 0.00793,-0.00655 0.08819428,0.08819482 0 0 0 0.00758,-0.00722 0.08819428,0.08819482 0 0 0 0.0062,-0.0086 0.08819428,0.08819482 0 0 0 0.00551,-0.00896 0.08819428,0.08819482 0 0 0 0.00413,-0.00965 0.08819428,0.08819482 0 0 0 0.00311,-0.00998 0.08819428,0.08819482 0 0 0 0.00173,-0.010342 0.08819428,0.08819482 0 0 0 6.667e-4,-0.010329 v -0.00204 a 0.08819428,0.08819482 0 0 0 0,-3.529e-4 v -0.8795279 -0.00204 a 0.08819427,0.08819482 0 0 0 -0.00107,-0.010684 0.08819427,0.08819482 0 0 0 -0.00204,-0.00998 0.08819427,0.08819482 0 0 0 -0.00311,-0.00998 0.08819427,0.08819482 0 0 0 -0.00448,-0.00965 0.08819427,0.08819482 0 0 0 -0.00586,-0.00896 0.08819427,0.08819482 0 0 0 -0.00655,-0.00793 0.08819427,0.08819482 0 0 0 -0.00724,-0.00758 0.08819427,0.08819482 0 0 0 -0.00862,-0.0062 0.08819427,0.08819482 0 0 0 -0.00896,-0.00552 0.08819427,0.08819482 0 0 0 -0.00964,-0.00413 0.08819427,0.08819482 0 0 0 -0.00999,-0.00311 0.08819427,0.08819482 0 0 0 -0.010333,-0.00173 0.08819427,0.08819482 0 0 0 -0.010333,-6.667e-4 h -0.00209 a 0.08819427,0.08819482 0 0 0 -3.529e-4,0 H 4.8506888 a 0.0881943,0.08819485 0 0 1 -0.088194,-0.086082 z" />
    <path
       id="path1078"
       style="fill:url(#radialGradient1111);fill-opacity:1;fill-rule:nonzero;stroke:none;stroke-width:0.352779px;stroke-linecap:butt;stroke-linejoin:miter;stroke-opacity:1"
       d="m 1.6736267,0.52916667 a 0.08819426,0.08819481 0 0 0 -0.010677,0.001033 0.08819426,0.08819481 0 0 0 -0.00999,0.002067 0.08819426,0.08819481 0 0 0 -0.00999,0.003101 0.08819426,0.08819481 0 0 0 -0.00964,0.004478 0.08819426,0.08819481 0 0 0 -0.00896,0.005857 0.08819426,0.08819481 0 0 0 -0.00793,0.006545 0.08819426,0.08819481 0 0 0 -0.00758,0.007236 0.08819426,0.08819481 0 0 0 -0.0062,0.008613 0.08819426,0.08819481 0 0 0 -0.00551,0.008958 0.08819426,0.08819481 0 0 0 -0.00413,0.009646 0.08819426,0.08819481 0 0 0 -0.00309,0.00999 0.08819426,0.08819481 0 0 0 -0.00173,0.0103351 0.08819426,0.08819481 0 0 0 -6.844e-4,0.0103351 v 0.002067 a 0.08819426,0.08819481 0 0 0 0,3.4396e-4 V 1.5875049 H 2.6458369 V 2.6458432 H 1.5875055 V 1.5875049 h -0.88194909 -0.0881943 -0.002068 c -0.0478988,0.00112 -0.0861404,0.040282 -0.0861273,0.088196 v 0.00207 0.086128 1.8520919 0.00206 a 0.08819426,0.08819481 0 0 0 0.001033,0.010685 0.08819426,0.08819481 0 0 0 0.002068,0.00998 0.08819426,0.08819481 0 0 0 0.003101,0.00998 0.08819426,0.08819481 0 0 0 0.004479,0.00964 0.08819426,0.08819481 0 0 0 0.005856,0.00896 0.08819426,0.08819481 0 0 0 0.006545,0.00793 0.08819426,0.08819481 0 0 0 0.007235,0.00758 0.08819426,0.08819481 0 0 0 0.008613,0.00619 0.08819426,0.08819481 0 0 0 0.008957,0.00551 0.08819426,0.08819481 0 0 0 0.009646,0.00414 0.08819426,0.08819481 0 0 0 0.009991,0.0031 0.08819426,0.08819481 0 0 0 0.0103354,0.00174 0.08819426,0.08819481 0 0 0 0.0103354,6.8e-4 h 0.002068 a 0.08819426,0.08819481 0 0 0 3.4395e-4,0 h 0.96772624 3.1749954 0.9701373 0.00209 a 0.08819427,0.08819482 0 0 0 0.010676,-0.00104 0.08819427,0.08819482 0 0 0 0.00999,-0.00206 0.08819427,0.08819482 0 0 0 0.00999,-0.0031 0.08819427,0.08819482 0 0 0 0.00964,-0.00448 0.08819427,0.08819482 0 0 0 0.00895,-0.00585 0.08819427,0.08819482 0 0 0 0.00793,-0.00655 0.08819427,0.08819482 0 0 0 0.00758,-0.00722 0.08819427,0.08819482 0 0 0 0.0062,-0.0086 0.08819427,0.08819482 0 0 0 0.00551,-0.00896 0.08819427,0.08819482 0 0 0 0.00413,-0.00964 0.08819427,0.08819482 0 0 0 0.00311,-0.00998 0.08819427,0.08819482 0 0 0 0.00173,-0.01034 0.08819427,0.08819482 0 0 0 6.667e-4,-0.010327 v -0.00206 a 0.08819427,0.08819482 0 0 0 0,-3.527e-4 v -1.9378667 -0.00207 a 0.08819427,0.08819481 0 0 0 -0.00106,-0.010685 0.08819427,0.08819481 0 0 0 -0.00209,-0.01 0.08819427,0.08819481 0 0 0 -0.00311,-0.01 0.08819427,0.08819481 0 0 0 -0.00448,-0.00965 0.08819427,0.08819481 0 0 0 -0.00586,-0.00896 0.08819427,0.08819481 0 0 0 -0.00655,-0.00793 0.08819427,0.08819481 0 0 0 -0.00724,-0.00758 0.08819427,0.08819481 0 0 0 -0.00862,-0.0062 0.08819427,0.08819481 0 0 0 -0.00896,-0.00551 0.08819427,0.08819481 0 0 0 -0.00964,-0.00414 0.08819427,0.08819481 0 0 0 -0.00999,-0.0031 0.08819427,0.08819481 0 0 0 -0.010333,-0.00172 0.08819427,0.08819481 0 0 0 -0.010333,-6.844e-4 h -0.00209 a 0.08819427,0.08819481 0 0 0 -3.529e-4,0 H 4.7624946 V 2.645858 H 3.7041629 V 1.5875076 h 1.0583317 v -0.97014607 -0.002067 a 0.08819427,0.08819481 0 0 0 -0.00102,-0.0106798 0.08819427,0.08819481 0 0 0 -0.00209,-0.00999 0.08819427,0.08819481 0 0 0 -0.00311,-0.00999 0.08819427,0.08819481 0 0 0 -0.00448,-0.009646 0.08819427,0.08819481 0 0 0 -0.00586,-0.008958 0.08819427,0.08819481 0 0 0 -0.00655,-0.007924 0.08819427,0.08819481 0 0 0 -0.00724,-0.007579 0.08819427,0.08819481 0 0 0 -0.00862,-0.006202 0.08819427,0.08819481 0 0 0 -0.00895,-0.005512 0.08819427,0.08819481 0 0 0 -0.00965,-0.004133 0.08819427,0.08819481 0 0 0 -0.00999,-0.003101 0.08819427,0.08819481 0 0 0 -0.010333,-0.001724 0.08819427,0.08819481 0 0 0 -0.010329,-6.8755e-4 h -0.00209 a 0.08819427,0.08819481 0 0 0 -3.529e-4,0 h -2.996152 z" />
    <rect
       y="3.7041814"
       x="1.5874994"
       height="0.70555878"
       width="3.1749949"
       id="rect77"
       style="fill:url(#linearGradient908);fill-opacity:1;stroke:none;stroke-width:0.144022;stroke-miterlimit:4;stroke-dasharray:0.576087, 0.576087;stroke-dashoffset:0;paint-order:fill markers stroke" />
  </g>
</svg>
